<?xml version="1.0" standalone="no"?>
<!DOCTYPE svg PUBLIC "-//W3C//DTD SVG 20010904//EN"
 "http://www.w3.org/TR/2001/REC-SVG-20010904/DTD/svg10.dtd">
<svg version="1.0" xmlns="http://www.w3.org/2000/svg"
 width="192.000000pt" height="192.000000pt" viewBox="0 0 192.000000 192.000000"
 preserveAspectRatio="xMidYMid meet">
<metadata>
Created by potrace 1.14, written by Peter Selinger 2001-2017
</metadata>
<g transform="translate(0.000000,192.000000) scale(0.100000,-0.100000)"
fill="#000000" stroke="none">
<path d="M755 1836 c-53 -18 -178 -78 -219 -107 -76 -51 -112 -99 -136 -177
-12 -41 -23 -95 -24 -120 l-1 -47 -58 -3 -58 -3 3 -37 c3 -36 4 -37 48 -40 60
-4 73 -17 66 -63 -9 -55 11 -220 33 -285 30 -83 21 -119 -40 -173 -29 -25 -59
-63 -69 -86 -20 -47 -76 -115 -94 -115 -6 0 -47 -18 -91 -40 -44 -22 -88 -40
-97 -40 -17 0 -18 -18 -18 -235 l0 -235 595 0 c327 0 595 2 595 5 0 2 -19 14
-42 26 -56 28 -52 22 -54 87 -6 145 -24 281 -51 365 -12 40 -20 49 -44 54 -22
4 -29 11 -29 28 0 13 -2 30 -6 38 -4 11 16 18 93 32 54 10 104 23 111 28 7 5
15 27 18 49 4 22 13 46 21 54 19 18 132 19 193 0 43 -13 63 -37 41 -51 -19
-11 -13 -137 9 -200 27 -77 26 -131 0 -145 -11 -6 -18 -15 -15 -19 2 -5 -9
-25 -25 -46 -41 -52 -43 -63 -35 -191 l7 -114 204 0 204 0 2 63 c4 111 -4 240
-16 254 -6 8 -19 22 -28 31 -29 26 -22 44 42 107 109 107 163 262 110 310 -12
10 -30 35 -42 54 -12 20 -28 41 -35 46 -7 6 -21 25 -30 43 -10 18 -21 33 -26
34 -22 3 -202 -14 -214 -21 -8 -4 -24 -24 -37 -45 l-22 -37 -135 -2 -134 -2
-3 51 c-2 36 1 54 13 64 8 7 15 22 15 34 -1 40 -36 155 -54 175 -11 12 -16 31
-14 53 3 33 3 33 61 36 56 3 57 4 57 32 0 27 -3 29 -47 36 -68 9 -73 16 -73
99 0 52 -6 86 -21 120 -32 71 -108 164 -154 187 -22 11 -50 29 -62 40 -12 11
-26 18 -30 15 -9 -6 -75 14 -112 32 -9 4 -29 3 -46 -3z m-262 -562 c20 -5 25
-9 16 -15 -7 -4 -16 -6 -20 -3 -14 9 -31 -56 -25 -98 4 -24 8 -53 9 -65 1 -11
5 -19 8 -17 4 2 9 -5 12 -16 3 -10 0 -21 -7 -24 -6 -2 -3 -5 7 -5 13 -1 17
-10 17 -43 0 -36 -4 -45 -25 -55 -21 -9 -27 -8 -34 5 -21 41 -41 156 -41 238
0 92 9 118 40 110 8 -3 28 -8 43 -12z m221 -77 c-13 -16 -24 -33 -24 -38 0 -5
-4 -9 -10 -9 -5 0 -10 10 -10 23 0 12 -6 33 -13 47 l-14 26 48 -10 48 -10 -25
-29z m-104 13 c11 -11 20 -26 19 -32 0 -7 -5 -3 -11 9 -13 28 -29 34 -64 24
-42 -11 -42 -31 0 -31 29 0 39 -5 47 -24 7 -14 17 -22 24 -19 12 4 24 -18 29
-55 4 -22 18 -25 41 -7 17 13 18 16 5 25 -8 5 -10 10 -4 10 6 0 20 17 32 39
42 74 44 74 255 32 103 -21 188 -39 190 -42 2 -2 12 -33 24 -69 19 -59 19 -66
4 -77 -9 -7 -33 -13 -53 -13 -21 0 -38 -5 -38 -10 0 -21 -112 -81 -183 -99
-78 -19 -122 -42 -137 -72 -15 -27 -13 -28 28 -13 23 8 83 13 157 14 66 0 135
4 154 10 l33 9 -7 -47 c-3 -26 -13 -52 -21 -59 -24 -18 -174 -36 -260 -31 -94
6 -126 20 -190 88 -26 27 -49 48 -52 45 -3 -2 14 -29 37 -59 49 -63 107 -93
201 -103 46 -4 60 -10 60 -22 -1 -38 -15 -44 -94 -38 -68 5 -88 12 -189 65
-149 78 -197 109 -197 128 0 8 5 35 11 59 8 34 18 46 40 56 17 6 34 20 40 30
5 11 16 19 24 19 21 0 18 13 -6 28 -13 8 -18 19 -14 31 3 9 -6 45 -20 79 -29
71 -31 104 -9 126 22 22 70 20 94 -4z m980 -326 c0 -8 -7 -14 -15 -14 -17 0
-18 2 -9 24 7 18 24 12 24 -10z m218 -20 c-9 -9 -247 -41 -254 -35 -3 3 38 13
93 22 102 18 170 23 161 13z m-89 -73 c-26 -22 -112 -29 -139 -11 -8 5 -13 10
-10 11 55 10 166 25 169 22 2 -1 -7 -11 -20 -22z m95 0 c-16 -10 -46 -37 -66
-60 -22 -26 -43 -41 -58 -41 -23 0 -22 2 15 41 48 49 93 79 120 79 16 0 14 -4
-11 -19z m76 -45 c5 -15 5 -38 -1 -59 -13 -47 -85 -154 -109 -162 -35 -11 -80
-73 -80 -111 l0 -34 -97 6 c-54 4 -100 8 -102 10 -8 7 11 54 20 49 5 -4 17 -4
25 -1 13 5 10 12 -14 34 -45 42 -75 177 -53 234 l10 28 35 -18 c20 -9 36 -22
36 -28 0 -6 11 -16 26 -22 14 -7 32 -28 40 -47 20 -48 38 -46 31 4 -4 33 -2
38 13 34 11 -3 16 -11 13 -22 -7 -27 22 -44 64 -38 25 4 48 18 69 41 49 53 19
67 -34 16 -32 -30 -70 -42 -55 -17 67 110 142 158 163 103z m-237 -392 c42 -4
75 -10 73 -13 -6 -10 -266 -1 -266 10 0 10 84 12 193 3z m-38 -134 c0 -20 -5
-25 -25 -25 -20 0 -26 6 -28 28 -3 26 -1 28 25 25 22 -2 28 -8 28 -28z"/>
</g>
</svg>
